<svg version="1.1" viewBox="0 0 79.818 94.31756756756756" xmlns:xlink="http://www.w3.org/1999/xlink" xmlns="http://www.w3.org/2000/svg" style="max-height: 500px" width="79.818" height="94.31756756756756">
    <g id="surface1">
        <path d="M 0.316406 0.316406 C 0.105469 0.53125 0.105469 0.667969 0.105469 24.519531 C 0.105469 48.355469 0.148438 50.976562 0.476562 53.585938 C 1.367188 60.488281 4.460938 67.105469 8.988281 71.816406 C 9.679688 72.515625 10.632812 73.4375 11.128906 73.863281 C 12.742188 75.21875 17.171875 78.464844 22.417969 82.132812 C 23.414062 82.824219 24.773438 83.765625 25.441406 84.242188 C 26.964844 85.304688 27.960938 86.003906 33.867188 90.203125 C 36.496094 92.070312 38.753906 93.683594 38.902344 93.777344 C 39.21875 94 39.582031 94.011719 39.75 93.796875 C 39.824219 93.703125 40.398438 93.289062 41.011719 92.855469 C 41.625 92.429688 42.855469 91.59375 43.726562 90.988281 C 44.605469 90.382812 46.4375 89.121094 47.804688 88.179688 C 49.171875 87.234375 51.75 85.464844 53.53125 84.234375 C 55.3125 83.003906 58.289062 80.945312 60.15625 79.664062 C 65.972656 75.652344 66.675781 75.15625 67.671875 74.328125 C 68.964844 73.234375 71.199219 70.933594 72.292969 69.566406 C 76.054688 64.847656 78.746094 58.433594 79.289062 52.929688 C 79.371094 52.089844 79.414062 44.125 79.425781 26.121094 L 79.445312 0.507812 L 79.191406 0.308594 C 78.949219 0.105469 78.195312 0.105469 39.738281 0.105469 C 0.667969 0.105469 0.53125 0.105469 0.316406 0.316406 Z M 74.699219 4.71875 C 74.855469 4.75 74.964844 4.890625 75.015625 5.121094 C 75.058594 5.300781 75.070312 15.84375 75.039062 28.527344 C 74.972656 51.21875 74.972656 51.613281 74.75 52.917969 C 74.273438 55.800781 73.703125 57.890625 72.820312 59.96875 C 71.316406 63.53125 69.378906 66.34375 66.453125 69.195312 C 64.152344 71.445312 64.195312 71.402344 56.347656 76.777344 C 51.570312 80.054688 41.804688 86.800781 40.449219 87.773438 C 39.867188 88.1875 39.515625 88.367188 39.304688 88.359375 C 39.082031 88.359375 37.175781 87.042969 31.820312 83.214844 C 27.878906 80.394531 23.636719 77.394531 22.398438 76.535156 C 15.476562 71.75 13.335938 70.011719 11.109375 67.339844 C 8.351562 64.042969 6.222656 59.585938 5.246094 55.082031 C 4.589844 52.058594 4.621094 53.585938 4.589844 28.304688 L 4.546875 5.226562 L 4.769531 4.953125 C 4.90625 4.78125 5.109375 4.667969 5.332031 4.644531 C 5.925781 4.59375 74.453125 4.65625 74.699219 4.71875 Z M 74.699219 4.71875" style="stroke:none;fill-rule:nonzero;fill:#022A99;fill-opacity:1;"/>
        <path d="M 14.597656 13.171875 C 14.4375 13.296875 14.414062 13.933594 14.414062 21.261719 C 14.40625 25.632812 14.40625 29.320312 14.40625 29.449219 C 14.425781 30.03125 14.054688 30.011719 22.800781 30.011719 C 30.707031 30.011719 30.847656 30.011719 31.058594 30.222656 C 31.175781 30.339844 31.28125 30.519531 31.300781 30.617188 C 31.3125 30.722656 31.324219 39.617188 31.324219 50.394531 C 31.324219 69.058594 31.332031 69.992188 31.515625 70.171875 C 31.695312 70.351562 32.160156 70.363281 39.8125 70.363281 C 47.722656 70.363281 47.933594 70.363281 48.082031 70.160156 C 48.207031 69.980469 48.230469 67.953125 48.230469 56.542969 L 48.230469 43.140625 L 47.859375 42.003906 C 47.351562 40.5 46.460938 38.675781 45.601562 37.382812 C 44.59375 35.855469 42.707031 34 41.097656 32.9375 C 39.367188 31.78125 36.75 30.65625 35.074219 30.328125 C 34.746094 30.265625 34.386719 30.148438 34.28125 30.074219 C 34.109375 29.949219 34.183594 29.90625 34.925781 29.746094 C 36.824219 29.320312 39.347656 28.242188 40.980469 27.148438 C 44.679688 24.644531 47.246094 20.976562 48.355469 16.605469 C 48.472656 16.109375 48.621094 15.695312 48.664062 15.695312 C 48.707031 15.695312 48.800781 15.96875 48.867188 16.300781 C 49.207031 17.996094 49.597656 19.089844 50.464844 20.796875 C 52.617188 24.953125 56.828125 28.347656 61.246094 29.46875 C 62.222656 29.726562 63.980469 30.011719 64.566406 30.011719 C 65.371094 30.011719 65.304688 30.679688 65.304688 21.792969 C 65.296875 17.414062 65.296875 13.734375 65.296875 13.605469 C 65.296875 13.480469 65.222656 13.296875 65.125 13.214844 C 64.976562 13.066406 62.539062 13.042969 39.867188 13.042969 C 19.960938 13.042969 14.734375 13.074219 14.597656 13.171875 Z M 14.597656 13.171875" style="stroke:none;fill-rule:nonzero;fill:#022A99;fill-opacity:1;"/>
        <path d="M 214.332031 3.839844 C 213.917969 4.105469 213.683594 4.335938 213.441406 4.773438 C 213.125 5.34375 213.113281 5.386719 213.082031 7.019531 L 213.039062 8.695312 L 215.496094 8.695312 L 215.496094 6.257812 L 214.863281 6.257812 C 214.238281 6.257812 214.226562 6.246094 214.226562 5.960938 C 214.226562 5.515625 214.574219 4.964844 215 4.742188 C 215.371094 4.550781 215.390625 4.507812 215.390625 4.019531 C 215.390625 3.550781 215.371094 3.5 215.148438 3.5 C 215.011719 3.5 214.648438 3.660156 214.332031 3.839844 Z M 214.332031 3.839844" style="stroke:none;fill-rule:nonzero;fill:#022A99;fill-opacity:1;"/>
    </g>
</svg>